#!OML:ASF F:\VICON\USERDATA\INSTALL\Justin_Nancy\Justin_Nancy.ASF
:FULLY-SPECIFIED
:DEGREES
315
root -0.0406333 17.2282 8.12333 1.08319 1.28262 7.45423
lowerback 6.47361 -1.13185 -8.40202
upperback -0.131805 -2.13454 0.311175
thorax -3.46027 -0.91071 5.24307
lowerneck -16.9371 -4.78931 -9.56174
upperneck 21.2626 -5.93068 7.6087
head 10.0919 -2.66376 3.45806
rclavicle -1.04362e-015 -6.36111e-015
rhumerus -35.1496 -20.8369 -75.6809
rradius 28.3033
rwrist 9.64936
rhand -14.7989 16.0932
rfingers 7.12502
rthumb 11.3587 -13.5792
lclavicle -1.04362e-015 -6.36111e-015
lhumerus -24.6125 -0.347635 85.6805
lradius 30.6844
lwrist -8.02368
lhand -12.2142 25.2044
lfingers 7.12502
lthumb 13.8506 54.7232
rfemur -32.3267 -0.13498 13.157
rtibia 25.4602
rfoot -1.69627 -15.0092
rtoes 2.96471
lfemur 3.11959 -0.429056 -31.247
ltibia 22.5238
lfoot -17.5301 2.5338
ltoes -0.127879
316
root -0.0623216 17.2167 8.30981 1.09401 1.52909 7.45265
lowerback 6.45244 -1.22553 -8.56185
upperback -0.0620344 -2.26348 0.376938
thorax -3.34712 -0.978956 5.41047
lowerneck -17.0921 -4.80546 -9.54695
upperneck 21.2303 -5.94214 7.61406
head 10.1104 -2.66365 3.45352
rclavicle 1.03368e-014 -1.19271e-014
rhumerus -35.1456 -21.0524 -75.5588
rradius 28.1244
rwrist 9.8123
rhand -14.9308 16.0446
rfingers 7.12502
rthumb 11.2314 -13.6347
lclavicle 1.03368e-014 -1.19271e-014
lhumerus -24.2859 -0.719289 85.7415
lradius 31.2951
lwrist -7.66408
lhand -12.2349 25.1832
lfingers 7.12502
lthumb 13.8306 54.7033
rfemur -31.3661 0.847013 12.5544
rtibia 21.6794
rfoot -2.70376 -15.2625
rtoes 2.91527
lfemur 4.11176 -0.624095 -31.1152
ltibia 21.9431
lfoot -17.6175 2.37103
ltoes -0.543411
317
root -0.0834685 17.2044 8.48949 1.14049 1.73791 7.39693
lowerback 6.42801 -1.24933 -8.52489
upperback 0.00118662 -2.28682 0.379871
thorax -3.26454 -0.996998 5.39219
lowerneck -17.261 -4.90081 -9.49746
upperneck 21.2568 -6.05699 7.54004
head 10.159 -2.71696 3.39994
rclavicle -3.93097e-014 -2.70347e-014
rhumerus -35.15 -21.7107 -75.3103
rradius 27.827
rwrist 10.2185
rhand -15.0705 16.0973
rfingers 7.12502
rthumb 11.0967 -13.5893
lclavicle -3.93097e-014 -2.70347e-014
lhumerus -23.8875 -1.28866 85.796
lradius 31.6841
lwrist -7.59331
lhand -12.1481 25.6076
lfingers 7.12502
lthumb 13.9143 55.1221
rfemur -30.459 1.91797 11.9728
rtibia 17.9746
rfoot -3.07202 -15.1577
rtoes 2.19198
lfemur 4.92528 -0.844516 -30.9215
ltibia 21.4961
lfoot -17.6574 2.18958
ltoes -1.64941
318
root -0.104454 17.1955 8.6718 1.19684 2.22203 7.36581
lowerback 6.48664 -1.34368 -8.44347
upperback 0.0153354 -2.41184 0.360415
thorax -3.26725 -1.06087 5.33755
lowerneck -17.2556 -5.01264 -9.49468
upperneck 21.1392 -6.20161 7.51308
head 10.1292 -2.78612 3.36646
rclavicle -1.99282e-014 1.74931e-014
rhumerus -35.352 -22.1631 -75.0736
rradius 27.7387
rwrist 10.3297
rhand -15.1487 16.1955
rfingers 7.12502
rthumb 11.0213 -13.4952
lclavicle -1.99282e-014 1.74931e-014
lhumerus -23.5875 -1.92797 85.861
lradius 32.087
lwrist -7.4757
lhand -11.9198 26.0132
lfingers 7.12502
lthumb 14.1343 55.5124
rfemur -29.4232 2.95012 11.2419
rtibia 14.4421
rfoot -3.02023 -15.1084
rtoes 1.75021
lfemur 5.74379 -1.18524 -30.6938
ltibia 21.1484
lfoot -17.7859 1.96298
ltoes -3.39465
319
root -0.12592 17.1884 8.85815 1.21293 2.71431 7.0465
lowerback 6.41998 -1.51965 -8.19777
upperback 0.13186 -2.61161 0.488397
thorax -3.08116 -1.17544 5.34337
lowerneck -17.1084 -4.97776 -9.3791
upperneck 20.6662 -6.1401 7.39304
head 9.91895 -2.76443 3.30841
rclavicle -7.95139e-016 -1.27222e-014
rhumerus -35.3135 -22.3413 -74.9315
rradius 27.5588
rwrist 10.4962
rhand -15.106 16.3499
rfingers 7.12502
rthumb 11.0625 -13.3386
lclavicle -7.95139e-016 -1.27222e-014
lhumerus -23.1322 -2.08483 85.8659
lradius 32.4586
lwrist -7.2618
lhand -11.7719 26.0886
lfingers 7.12502
lthumb 14.2768 55.5778
rfemur -28.3396 3.86552 10.901
rtibia 11.2871
rfoot -3.00224 -15.0183
rtoes 1.48171
lfemur 6.57937 -1.60904 -30.1583
ltibia 20.8642
lfoot -17.9964 1.78093
ltoes -6.48932
320
root -0.140978 17.1755 9.04659 1.13087 3.06883 6.941
lowerback 6.38785 -1.68168 -8.16065
upperback 0.226533 -2.81337 0.609474
thorax -2.92883 -1.28563 5.46057
lowerneck -17.0426 -4.89508 -9.50225
upperneck 20.4735 -5.98842 7.40982
head 9.82868 -2.70328 3.35519
rclavicle 2.83765e-014 -7.95139e-015
rhumerus -35.3365 -22.5128 -74.6514
rradius 27.2925
rwrist 10.8137
rhand -15.087 15.7297
rfingers 7.12502
rthumb 11.0809 -13.9578
lclavicle 2.83765e-014 -7.95139e-015
lhumerus -22.8599 -2.08532 85.9449
lradius 32.8184
lwrist -7.19052
lhand -11.9966 25.8628
lfingers 7.12502
lthumb 14.0603 55.3672
rfemur -27.3483 3.40981 11.0482
rtibia 9.00223
rfoot -3.13328 -13.4188
rtoes 0.539303
lfemur 7.47543 -1.82245 -29.9052
ltibia 20.6003
lfoot -18.0164 1.3356
ltoes -9.83106
